<svg width="400" height="150" viewBox="0 0 400 150" fill="none" xmlns="http://www.w3.org/2000/svg">
<rect width="400" height="150" fill="white"/>
<path d="M58.3843 27.232C49.7128 28.5903 41.2726 32.1747 34.7208 37.306C25.2399 44.7388 19.1892 54.4354 16.4914 66.6599C15.8362 69.6783 15.8362 81.3746 16.4914 84.393C18.0715 91.4485 21.1547 98.5417 24.8931 103.748C27.244 106.993 33.3719 112.992 36.6863 115.294C42.0048 118.954 49.2503 121.972 56.4573 123.519C59.5405 124.16 71.4879 124.16 74.5711 123.519C81.778 121.972 89.0235 118.954 94.342 115.294C97.6565 112.992 103.784 106.993 106.135 103.748C109.874 98.5417 112.957 91.4485 114.537 84.393C115.192 81.3746 115.192 69.6783 114.537 66.6599C112.957 59.6044 109.874 52.5111 106.135 47.3044C103.784 44.0596 97.6565 38.0606 94.342 35.759C89.1392 32.1747 82.3561 29.2695 75.5346 27.7603C72.4899 27.0811 61.5831 26.7416 58.3843 27.232ZM75.1877 41.7958C75.8814 42.1354 77.2689 43.1918 78.3094 44.1351L80.1594 45.8329L83.2425 45.7575C87.5976 45.6443 90.7964 47.1912 91.4516 49.7568C91.7599 51.1151 90.9891 51.3792 88.4454 50.7756C87.1736 50.5114 85.632 50.2473 85.0539 50.2473H83.9363L85.3237 51.7943C87.7903 54.624 88.7923 57.8311 87.7903 59.6798C86.9424 61.2268 86.133 61.0381 84.9383 59.0384C83.8977 57.3028 79.9281 52.8884 79.3886 52.8884C79.2344 52.8884 78.8105 53.4921 78.3865 54.209C78.0011 54.9258 77.6157 55.5295 77.5772 55.5295C77.3074 55.5295 74.3784 53.5298 74.3784 53.3412C74.3784 53.228 74.6867 52.813 75.0721 52.3979C75.7273 51.6433 75.6887 51.6433 72.8368 51.8697C71.2566 51.9829 68.9442 52.4357 67.7495 52.8884C65.3215 53.7562 64.7434 53.6808 64.7434 52.3979C64.7434 50.0587 68.1349 47.6062 72.1816 47.0403C74.4554 46.7384 74.2242 46.3234 70.64 44.3615C69.3296 43.6069 68.212 42.8523 68.212 42.7013C68.212 42.5127 68.6745 42.0222 69.2911 41.5694C70.139 40.8903 70.6785 40.7771 72.143 40.928C73.1451 41.0412 74.494 41.4185 75.1877 41.7958ZM57.4593 44.8142C59.0395 45.6066 58.7697 46.3989 56.5344 47.6062C55.5323 48.1345 54.4147 48.8513 54.0678 49.2286C53.4512 49.8323 53.4897 49.87 54.9157 49.87C58.0374 49.9078 61.6602 52.3225 61.6602 54.4354C61.6602 55.0013 61.5446 55.5673 61.3519 55.6805C61.1977 55.7559 60.0415 55.4918 58.7697 55.0768C57.5364 54.6995 55.3011 54.2467 53.798 54.1335L51.1388 53.9071L53.1043 56.3219L55.1084 58.6988L53.1043 59.9439L51.1002 61.189L49.6743 58.6234C48.8649 57.2274 48.017 56.0955 47.7473 56.0955C47.4775 56.0955 46.4369 57.1897 45.3963 58.5479C44.3943 59.9062 43.2766 61.3399 42.9683 61.755C42.3902 62.5096 42.3902 62.5096 41.6194 61.6041C40.232 60.0194 40.9642 56.8878 43.3923 54.0581L44.5099 52.7752L42.7756 53.0016C41.8121 53.1525 40.4247 53.3412 39.6539 53.4921C37.9967 53.7562 37.6113 53.228 38.3435 51.4924C39.1143 49.7191 41.8892 48.5495 45.3578 48.5495C47.9014 48.5495 48.2483 48.4363 49.4045 47.3799C51.2929 45.682 51.871 45.3047 53.4512 44.7388C55.3782 44.0973 56.0719 44.0974 57.4593 44.8142ZM76.6137 56.8878C76.6522 56.8878 76.1897 58.0574 75.5346 59.4157C74.494 61.7172 74.3013 61.9059 73.5305 61.6041C71.141 60.6608 69.7536 60.0194 69.7536 59.8307C69.7536 59.5666 71.9503 56.3596 72.7597 55.4541C73.2607 54.8504 73.4149 54.8881 74.9179 55.8314C75.7658 56.3596 76.5366 56.8501 76.6137 56.8878ZM57.6135 62.0191C58.3457 63.1133 58.9624 64.2074 58.9624 64.3961C58.9624 64.8111 53.6824 67.4899 53.4897 67.1881C53.2199 66.8485 52.0252 63.151 52.0252 62.7737C52.0252 62.4718 55.648 60.1326 56.149 60.0571C56.1875 60.0571 56.8427 60.9626 57.6135 62.0191ZM71.4879 62.5096C73.4149 63.3396 73.6461 63.5283 73.3763 64.2829C73.2222 64.7734 72.8753 65.9807 72.6055 66.9994C72.3357 67.9804 72.066 68.8859 71.9889 68.9614C71.9118 69.0369 70.4858 68.735 68.8672 68.2823C67.0172 67.7918 65.8996 67.3013 65.8996 66.9617C65.8996 66.4335 67.6339 62.8491 68.2891 62.0191C68.8286 61.4154 69.0213 61.4154 71.4879 62.5096ZM61.1977 69.0369C61.8529 70.6215 62.5081 72.4326 62.6622 73.0362C62.932 74.0927 62.9705 74.0172 63.8184 71.7534C64.2809 70.4706 64.8205 69.2632 65.0132 69.1123C65.1673 68.9614 66.7089 69.2632 68.4047 69.8292L71.5264 70.8102L71.1025 72.6967L70.6785 74.5832L63.7413 74.8095C59.9644 74.9227 56.4188 75.1491 55.8792 75.3C54.8772 75.5641 54.8772 75.5264 54.4147 72.2816C54.1449 70.5083 53.9522 68.9614 54.0293 68.9237C54.2991 68.6973 59.579 66.1317 59.8103 66.0939C59.9259 66.0939 60.5811 67.4145 61.1977 69.0369ZM73.993 76.847C81.4312 77.9411 86.7882 79.9786 90.1797 82.9592C93.1473 85.5626 93.9181 87.4114 92.6077 88.8074C92.0297 89.4488 90.6808 89.4865 65.3986 89.4865C41.1955 89.4865 38.7289 89.4488 38.0737 88.8451C36.6863 87.6 37.4956 85.6003 40.3861 83.0347C43.7006 80.0917 49.3274 77.9411 56.4573 76.847C60.7352 76.1678 69.5994 76.1678 73.993 76.847ZM40.8872 95.5233C41.8121 96.127 42.9683 96.9193 43.4308 97.2589C44.2401 97.8248 44.3558 97.7871 45.9359 96.542C49.7513 93.5236 51.3315 93.6368 56.1104 97.1834C56.4188 97.4098 57.0354 97.1834 58.0374 96.3911C61.7373 93.5613 63.3945 93.6368 67.4412 96.8061C69.0984 98.0889 69.1755 98.1267 70.139 97.523C76.3054 93.4859 77.4616 93.4482 82.202 97.108L83.6665 98.2399L85.6706 96.957C90.4495 93.8632 91.7599 93.6745 94.9202 95.7874C96.0763 96.5797 97.7336 97.8248 98.6585 98.6172C100.431 100.126 100.393 100.541 98.5429 102.239L97.6179 103.107L95.1514 100.994C93.8025 99.8623 92.2994 98.8058 91.7984 98.6549C91.1047 98.504 89.987 99.0322 87.058 100.994L83.2425 103.522L80.6604 101.221C79.2729 99.9377 77.6928 98.8058 77.1918 98.6549C76.4595 98.504 75.3804 98.9945 72.3743 100.994L68.4818 103.56L67.788 102.617C66.8245 101.334 63.0862 98.5417 62.3154 98.5417C61.9685 98.5417 60.5811 99.5604 59.2322 100.806C57.8447 102.051 56.6115 103.069 56.4573 103.069C56.3031 103.069 55.0699 102.051 53.6824 100.806C52.3335 99.5604 50.9075 98.5417 50.5221 98.5417C50.1753 98.5417 48.6337 99.5604 47.0921 100.806C45.589 102.051 44.2787 103.069 44.1245 103.069C44.0089 103.069 42.6985 102.051 41.1569 100.806C39.6539 99.5604 38.1123 98.5417 37.7654 98.5417C37.4186 98.5417 35.877 99.5981 34.3354 100.843L31.522 103.182L30.096 101.786L28.7085 100.39L30.8282 98.504C35.7613 94.1273 37.804 93.5236 40.8872 95.5233Z" fill="#0A9345"/>
<path d="M339.533 71.3762V85.7136H342.616C345.082 85.7136 345.699 85.6004 345.699 85.1476C345.699 84.4308 345.853 84.4308 347.356 85.2231C348.127 85.6004 349.515 85.8645 350.941 85.8645C356.066 85.8645 359.342 82.2424 359.843 76.0924C360.383 69.5652 357.145 64.5848 352.444 64.5848C350.902 64.5848 347.164 66.0185 346.701 66.8109C345.93 67.9805 345.699 66.8109 345.699 62.1323V57.0388H342.616H339.533V71.3762ZM351.557 69.9047C352.675 70.5084 353.407 72.5458 353.407 75.1115C353.407 79.9032 351.133 82.167 347.048 81.4124L345.699 81.1483V75.9038V70.6593L346.778 70.0934C348.011 69.4142 350.44 69.3388 351.557 69.9047Z" fill="#0A9345"/>
<path d="M130.261 72.1685V85.8268L137.699 85.6004C141.9 85.4872 145.716 85.1854 146.525 84.9213C148.452 84.3176 150.533 82.5443 151.458 80.771C152.268 79.224 152.499 76.2056 151.882 74.6587C151.381 73.3759 149.608 71.829 148.105 71.3385C146.525 70.848 146.525 70.6216 147.99 69.5652C149.762 68.2446 150.418 66.6977 150.225 64.0943C150.071 62.0946 149.917 61.7173 148.683 60.5854C147.913 59.9063 146.641 59.1894 145.793 58.963C144.983 58.7367 141.168 58.548 137.314 58.548H130.261V72.1685ZM141.476 63.4529C143.095 63.9057 143.943 65.3771 143.519 66.9995C143.134 68.5465 141.977 69.1124 139.241 69.1124H136.813V66.094V63.0756H138.47C139.357 63.0756 140.706 63.2643 141.476 63.4529ZM144.29 74.7342C144.983 75.3756 145.292 76.0547 145.292 76.9225C145.292 79.7145 143.635 80.8087 139.511 80.8087H136.813V77.1866V73.5645L140.05 73.6777C142.864 73.8287 143.442 73.9418 144.29 74.7342Z" fill="#0A9345"/>
<path fill-rule="evenodd" clip-rule="evenodd" d="M297.525 60.8116V63.0376L300.723 63.1508L303.884 63.264V70.2441C303.884 74.0925 303.768 77.6769 303.575 78.2428C302.882 80.6953 299.914 81.714 296.407 80.6953L294.441 80.1293V82.8836V85.6002L297.64 85.8643C304.346 86.3548 308.046 84.921 309.896 80.9971C310.551 79.6388 310.628 78.4315 310.628 68.999V58.5478H304.076H297.525V60.8116Z" fill="#0A9345"/>
<path d="M161.363 65.113C158.627 66.094 156.969 67.4522 155.89 69.6406C153.154 75.0737 154.811 82.1669 159.397 84.808C161.71 86.1286 166.065 86.5059 169.225 85.6003C171.383 84.9589 173.773 83.0724 174.775 81.2237C175.623 79.5258 176.201 75.9792 175.931 73.9041C175.314 69.716 173.734 67.2636 170.535 65.6035C168.57 64.6225 163.521 64.3206 161.363 65.113ZM167.953 69.9801C169.148 71.0366 169.687 73.3381 169.495 76.281C169.225 79.6013 168.454 81.035 166.489 81.601C165.14 82.016 164.716 81.9783 163.56 81.4501C161.787 80.5823 161.093 78.9221 161.093 75.451C161.132 71.8289 162.057 69.6783 163.868 69.1501C165.487 68.6973 166.836 68.9614 167.953 69.9801Z" fill="#0A9345"/>
<path d="M199.055 65.0753L196.742 65.528L196.627 67.9428C196.511 70.282 196.511 70.3197 197.398 70.0934C202.793 68.5842 204.373 68.5087 206.763 69.5651C207.842 70.0556 208.497 71.678 207.765 72.1308C207.495 72.2817 205.992 72.5081 204.45 72.6213C199.055 73.074 195.74 74.9983 195.162 78.0167C194.815 79.9032 195.201 82.2801 196.049 83.412C197.552 85.374 198.746 85.9022 201.521 85.9022C203.795 85.9022 204.412 85.7513 206.108 84.6949L208.112 83.4875V84.5817V85.7136H211.233H214.317L214.201 77.2621C214.085 67.5655 214.008 67.4145 210.655 65.7544C209.152 64.9998 208.073 64.8112 205.067 64.7357C203.024 64.6602 200.327 64.8112 199.055 65.0753ZM208.112 78.1676C208.112 80.3182 208.035 80.4691 206.878 81.186C204.335 82.6952 201.444 81.7142 201.444 79.3749C201.444 78.6958 201.753 77.828 202.138 77.413C202.793 76.6961 205.028 76.017 207.071 75.9415C208.112 75.9038 208.112 75.9415 208.112 78.1676Z" fill="#0A9345"/>
<path fill-rule="evenodd" clip-rule="evenodd" d="M225.764 65.113C220.946 66.3958 218.133 70.1311 218.133 75.3756C218.133 79.8654 220.291 83.3743 224.029 84.959C226.843 86.1663 231.082 86.355 234.127 85.4495L236.439 84.7326L236.555 82.016C236.632 80.5068 236.516 79.2995 236.362 79.2995C236.208 79.2995 235.283 79.8277 234.358 80.4314C232.739 81.4878 231.545 81.7519 228.924 81.601C226.457 81.4123 224.685 78.8467 224.685 75.4133C224.685 71.3007 226.612 69.1124 230.196 69.1124C231.969 69.1124 234.744 70.1311 235.283 70.9989C235.399 71.1875 235.784 71.3762 236.092 71.3762C236.516 71.3762 236.632 70.7725 236.632 68.7728C236.632 66.2826 236.593 66.1694 235.591 65.7921C232.238 64.5093 228.924 64.2829 225.764 65.113Z" fill="#0A9345"/>
<path d="M242.605 65.0753L240.292 65.528L240.177 67.9428C240.061 70.282 240.061 70.3197 240.947 70.0934C246.343 68.5842 247.923 68.5087 250.313 69.5651C251.392 70.0556 252.047 71.678 251.315 72.1308C251.045 72.2817 249.542 72.5081 248 72.6213C242.605 73.074 239.29 74.9983 238.712 78.0167C238.365 79.9032 238.751 82.2801 239.598 83.412C241.102 85.374 242.296 85.9022 245.071 85.9022C247.345 85.9022 247.962 85.7513 249.657 84.6949L251.661 83.4875V84.5817V85.7136H254.783H257.866L257.751 77.2621C257.635 67.5655 257.558 67.4145 254.205 65.7544C252.702 64.9998 251.623 64.8112 248.617 64.7357C246.574 64.6602 243.876 64.8112 242.605 65.0753ZM251.661 78.1676C251.661 80.3182 251.584 80.4691 250.428 81.186C247.885 82.6952 244.994 81.7142 244.994 79.3749C244.994 78.6958 245.302 77.828 245.688 77.413C246.343 76.6961 248.578 76.017 250.621 75.9415C251.661 75.9038 251.661 75.9415 251.661 78.1676Z" fill="#0A9345"/>
<path d="M321.304 65.113C318.567 66.094 316.91 67.4522 315.831 69.6406C313.095 75.0737 314.752 82.1669 319.338 84.808C321.651 86.1286 326.006 86.5059 329.166 85.6003C331.324 84.9589 333.714 83.0724 334.716 81.2237C335.564 79.5258 336.142 75.9792 335.872 73.9041C335.255 69.716 333.675 67.2636 330.476 65.6035C328.511 64.6225 323.462 64.3206 321.304 65.113ZM327.894 69.9801C329.089 71.0366 329.628 73.3381 329.436 76.281C329.166 79.6013 328.395 81.035 326.43 81.601C325.081 82.016 324.657 81.9783 323.501 81.4501C321.728 80.5823 321.034 78.9221 321.034 75.451C321.073 71.8289 321.998 69.6783 323.809 69.1501C325.428 68.6973 326.776 68.9614 327.894 69.9801Z" fill="#0A9345"/>
<path fill-rule="evenodd" clip-rule="evenodd" d="M368.322 65.1128C364.661 66.0938 362.657 68.4331 362.657 71.5269C362.695 75.2622 364.43 76.6582 371.02 78.1674C373.294 78.6579 374.026 79.2993 373.641 80.4312C372.947 82.6196 367.282 82.3932 363.736 79.9785C363.196 79.6012 362.618 79.2993 362.503 79.2993C362.387 79.2993 362.271 80.4689 362.271 81.9027C362.271 84.3551 362.31 84.5061 363.351 84.9211C368.13 86.7698 374.797 86.3171 377.687 83.9778C379.306 82.6196 380 81.1858 380 79.1107C380 75.715 378.381 74.319 372.908 72.923C371.251 72.5079 369.594 71.942 369.286 71.6401C368.515 70.8478 369.016 69.6404 370.365 69.1122C372.292 68.3199 374.72 68.8481 378.959 70.9233C379.113 70.9987 379.229 69.9045 379.152 68.5085L379.036 65.9052L377.495 65.4147C375.221 64.6601 370.48 64.5092 368.322 65.1128Z" fill="#0A9345"/>
<path fill-rule="evenodd" clip-rule="evenodd" d="M190.653 65.4902C189.882 65.7921 188.649 66.4335 187.917 66.9994C187.185 67.5277 186.491 67.9804 186.375 67.9804C186.26 67.9804 186.144 67.3767 186.144 66.6599V65.3393H183.061H179.978V75.5264V85.7135H183.061H186.144V78.7712V71.8289L187.608 71.3384C188.379 71.0743 190.114 70.8479 191.462 70.8102H193.852V67.8672C193.852 65.1129 193.813 64.962 193.004 64.962C192.503 64.9997 191.462 65.2261 190.653 65.4902Z" fill="#0A9345"/>
<path fill-rule="evenodd" clip-rule="evenodd" d="M260.912 65.5279C260.912 65.6411 262.569 70.0932 264.65 75.4131L268.35 85.1475L267.579 87.2226C267.155 88.3545 266.423 90.2033 265.96 91.2597L265.151 93.2594H268.543H271.973L276.058 82.3932C278.293 76.4318 280.683 70.1687 281.299 68.4331L282.455 65.3392H279.218C276.482 65.3392 275.981 65.4524 275.788 65.9806C274.208 71.4892 271.934 77.7901 271.703 77.5637C271.549 77.3751 270.508 74.5453 269.39 71.2628L267.386 65.3392H264.149C262.376 65.3392 260.912 65.4147 260.912 65.5279Z" fill="#0A9345"/>
</svg>
