<?xml version="1.0" encoding="UTF-8"?>
<svg width="79px" height="88px" viewBox="0 0 79 88" version="1.1" xmlns="http://www.w3.org/2000/svg" xmlns:xlink="http://www.w3.org/1999/xlink">
    <!-- Generator: Sketch 52.6 (67491) - http://www.bohemiancoding.com/sketch -->
    <title>brisk-labs-icon</title>
    <desc>Created with Sketch.</desc>
    <defs>
        <linearGradient x1="7.09675239%" y1="50%" x2="50%" y2="100%" id="linearGradient-1">
            <stop stop-color="#478FC4" offset="0%"></stop>
            <stop stop-color="#225692" offset="100%"></stop>
        </linearGradient>
        <linearGradient x1="7.76393094%" y1="25.3583344%" x2="50%" y2="100%" id="linearGradient-2">
            <stop stop-color="#478FC4" offset="0%"></stop>
            <stop stop-color="#225692" offset="100%"></stop>
        </linearGradient>
        <linearGradient x1="6.56599084%" y1="50%" x2="50%" y2="100%" id="linearGradient-3">
            <stop stop-color="#478FC4" offset="0%"></stop>
            <stop stop-color="#225692" offset="100%"></stop>
        </linearGradient>
    </defs>
    <g id="Page-1" stroke="none" stroke-width="1" fill="none" fill-rule="evenodd">
        <g id="BriskLab-Large" transform="translate(-48.000000, -33.000000)">
            <g id="brisk-labs-icon" transform="translate(86.099482, 66.412867) rotate(29.000000) translate(-86.099482, -66.412867) translate(48.599482, 20.412867)">
                <circle id="Oval" fill="#225692" cx="47" cy="4" r="1"></circle>
                <circle id="Oval" fill="#225692" cx="49" cy="51" r="1"></circle>
                <circle id="Oval" fill="#225692" cx="56.5" cy="2.5" r="2.5"></circle>
                <path d="M49,11 C49,13.209139 50.5670034,15 52.5,15 C54.4329966,15 56,13.209139 56,11 C56,8.790861 54.4329966,7 52.5,7 C50.5679029,7.00247994 49.0021699,8.79188904 49,11 Z M53.6666667,11 C53.6666667,11.7363797 53.1443322,12.3333333 52.5,12.3333333 C51.8556678,12.3333333 51.3333333,11.7363797 51.3333333,11 C51.3333333,10.2636203 51.8556678,9.66666667 52.5,9.66666667 C53.1440324,9.66749331 53.6659434,10.263963 53.6666667,11 Z" id="Shape" fill="#225692" fill-rule="nonzero"></path>
                <circle id="Oval" fill="#225692" cx="45.5" cy="58.5" r="2.5"></circle>
                <path d="M40.5,71 C42.4329966,71 44,69.209139 44,67 C44,64.790861 42.4329966,63 40.5,63 C38.5670034,63 37,64.790861 37,67 C37.0021699,69.208111 38.5679029,70.9975201 40.5,71 Z M40.5,65.6666667 C41.1443322,65.6666667 41.6666667,66.2636203 41.6666667,67 C41.6666667,67.7363797 41.1443322,68.3333333 40.5,68.3333333 C39.8556678,68.3333333 39.3333333,67.7363797 39.3333333,67 C39.3340566,66.263963 39.8559676,65.6674933 40.5,65.6666667 Z" id="Shape" fill="#225692" fill-rule="nonzero"></path>
                <path d="M56.4285714,45.43625 L56.4285714,24.285 C58.1332998,23.675666 59.1555969,21.9153232 58.8497693,20.1158221 C58.5439417,18.316321 56.9988865,17.0007343 55.1904762,17 L42.8095238,17 C41.0011135,17.0007343 39.4560583,18.316321 39.1502307,20.1158221 C38.8444031,21.9153232 39.8667002,23.675666 41.5714286,24.285 L41.5714286,45.43625 L23.1467143,80.1598437 C23.0504098,80.3413591 23.000012,80.5440835 23,80.75 C23.0069084,86.9603121 27.9916909,91.9930252 34.1428571,92 L63.8571429,92 C70.0083091,91.9930252 74.9930916,86.9603121 75,80.75 C74.999988,80.5440835 74.9495902,80.3413591 74.8532857,80.1598437 L56.4285714,45.43625 Z M42.8095238,19.5 L55.1904762,19.5 C55.8742573,19.5 56.4285714,20.0596441 56.4285714,20.75 C56.4285714,21.4403559 55.8742573,22 55.1904762,22 L42.8095238,22 C42.1257427,22 41.5714286,21.4403559 41.5714286,20.75 C41.5714286,20.0596441 42.1257427,19.5 42.8095238,19.5 Z M43.9009048,46.3401562 C43.9972092,46.1586409 44.047607,45.9559165 44.047619,45.75 L44.047619,24.5 L53.952381,24.5 L53.952381,45.75 C53.952393,45.9559165 54.0027908,46.1586409 54.0990952,46.3401562 L60.4777619,58.3614062 C59.9247051,58.2870407 59.3673687,58.2498234 58.8094286,58.25 C53.0717857,58.25 48.4038571,62.1751562 48.4038571,67 C48.4038571,70.44625 44.9274405,73.25 40.6543095,73.25 C38.0779881,73.25 35.6740714,72.214375 34.2241071,70.4798437 C33.4012376,69.5315317 32.9347286,68.3213588 32.9061548,67.0609375 L43.9009048,46.3401562 Z M63.8571429,89.5 L34.1428571,89.5 C29.4757743,89.4943877 25.6490164,85.7628247 25.4812976,81.0539062 L31.1817976,70.3107812 C31.4891929,70.9510922 31.875551,71.5495893 32.3316786,72.0920312 C34.2463929,74.3826562 37.3575714,75.75 40.6543095,75.75 C46.29275,75.75 50.8800476,71.8248437 50.8800476,67 C50.8800476,63.55375 54.4370952,60.75 58.8094286,60.75 C59.9070436,60.7462362 60.9973533,60.9303005 62.0340476,61.294375 L72.5187024,81.0539062 C72.3509836,85.7628247 68.5242257,89.4943877 63.8571429,89.5 Z" id="Shape" fill="#225692" fill-rule="nonzero"></path>
                <path d="M14.5274023,37.968889 C13.4694687,37.4239128 12.2159575,37.980639 11.7040693,39.3108728 C11.1639418,40.7144914 11.7072746,42.3521542 12.8465465,42.9390305 L32.0100784,52.8107933 C33.068012,53.3557695 34.3215232,52.7990433 34.8334114,51.4688095 C35.3735388,50.0651909 34.830206,48.4275281 33.6909341,47.8406518 L14.5274023,37.968889 Z" id="Rectangle" stroke="url(#linearGradient-1)" stroke-width="2" fill-rule="nonzero" transform="translate(23.268740, 45.389841) rotate(-10.000000) translate(-23.268740, -45.389841) "></path>
                <path d="M17.8548041,22.1509232 C16.9511454,21.6458849 15.8672393,22.1681678 15.4004898,23.4841123 C14.8943134,24.9112161 15.4032229,26.5753946 16.4370536,27.1531837 L34.1004728,37.0249466 C35.0041315,37.5299849 36.0880376,37.007702 36.5547871,35.6917575 C37.0609635,34.2646537 36.5520541,32.6004752 35.5182233,32.0226861 L17.8548041,22.1509232 Z" id="Rectangle" stroke="url(#linearGradient-2)" stroke-width="2" fill-rule="nonzero" transform="translate(25.977638, 29.587935) rotate(-9.000000) translate(-25.977638, -29.587935) "></path>
                <path d="M5.51157865,52.7017294 C4.45364507,52.1567531 3.20013385,52.7134793 2.68824566,54.0437132 C2.14811824,55.4473318 2.69145099,57.0849946 3.8307229,57.6718708 L22.9942548,67.5436336 C24.0521884,68.0886099 25.3056996,67.5318837 25.8175878,66.2016498 C26.3577152,64.7980312 25.8143824,63.1603684 24.6751105,62.5734922 L5.51157865,52.7017294 Z" id="Rectangle" stroke="url(#linearGradient-3)" stroke-width="2" fill-rule="nonzero" transform="translate(14.252917, 60.122681) rotate(-11.000000) translate(-14.252917, -60.122681) "></path>
            </g>
        </g>
    </g>
</svg>